PathFileType	4	(X/Y/Z)	RBDS025\RBDS025runT25.trc
DataRate	CameraRate	NumFrames	NumMarkers	Units	OrigDataRate	OrigDataStartFrame	OrigNumFrames
150.000000	150.000000	5	33	mm	150.000000	2812	4500
Frame#	Time	L.ASIS			L.Heel.Bottom			L.Heel.Lateral			L.Heel.Top			L.Iliac.Crest			L.MT1			L.MT5			L.PSIS			L.Shank.Bottom.Lateral			L.Shank.Bottom.Medial			L.Shank.Top.Lateral			L.Shank.Top.Medial			L.Thigh.Bottom.Lateral			L.Thigh.Bottom.Medial			L.Thigh.Top.Lateral			L.Thigh.Top.Medial			R.ASIS			R.ASY			R.Heel.Bottom			R.Heel.Lateral			R.Heel.Top			R.Iliac.Crest			R.MT1			R.MT5			R.PSIS			R.Shank.Bottom.Lateral			R.Shank.Bottom.Medial			R.Shank.Top.Lateral			R.Shank.Top.Medial			R.Thigh.Bottom.Lateral			R.Thigh.Bottom.Medial			R.Thigh.Top.Lateral			R.Thigh.Top.Medial			
		X1	Y1	Z1	X2	Y2	Z2	X3	Y3	Z3	X4	Y4	Z4	X5	Y5	Z5	X6	Y6	Z6	X7	Y7	Z7	X8	Y8	Z8	X9	Y9	Z9	X10	Y10	Z10	X11	Y11	Z11	X12	Y12	Z12	X13	Y13	Z13	X14	Y14	Z14	X15	Y15	Z15	X16	Y16	Z16	X17	Y17	Z17	X18	Y18	Z18	X19	Y19	Z19	X20	Y20	Z20	X21	Y21	Z21	X22	Y22	Z22	X23	Y23	Z23	X24	Y24	Z24	X25	Y25	Z25	X26	Y26	Z26	X27	Y27	Z27	X28	Y28	Z28	X29	Y29	Z29	X30	Y30	Z30	X31	Y31	Z31	X32	Y32	Z32	X33	Y33	Z33	

2813	18.74666666666667	2213.123868105968	966.0446653772169	878.1349509317783	2199.025913576749	54.82534835985099	947.5163565875134	2218.876394257089	73.74934713399867	899.1242051726517	2202.819463080387	99.25294545897893	942.6522616532136	2135.939591220258	1053.512390099401	829.2959879622953	2406.24800127423	94.59541821732701	954.9529623938912	2366.616328785072	75.99009182388004	851.346486069642	2056.601213360301	1030.410001491852	929.1469339541335	2260.745977078064	216.0399784241308	866.6762879190481	2214.276164855597	220.4501880665899	897.3094788814301	2253.503862238043	293.4870404696231	846.079675816978	2207.485501549824	298.2497094700189	874.3929796318175	2232.110997763624	638.1906503511981	813.1821036662334	2173.405651219934	610.3126466862495	845.6539495111606	2180.676393635702	733.8680746896082	803.0041381152275	2125.803414168073	708.5376096347845	837.0683101597477	2220.77147321607	952.477460612458	1079.305132722244	1799.303583712948	104.1463667939614	1040.153460572686	1638.355849350438	198.9209186103982	1000.909012709228	1663.554455254042	193.320567221112	1047.482452754195	1674.870186794474	223.8249713305708	1009.670042272021	2186.216118730721	1027.403535126058	1116.477497451199	1799.467268254691	61.7007110350051	989.3722513726818	1751.021623247636	69.95053593742242	1091.265444320139	2066.657876904061	1027.861502387565	1031.353720045476	1777.743393770547	276.8056283567398	1084.795493542302	1748.113306764163	301.4179140738238	1050.56879117567	1818.137678216549	349.8006588660479	1100.738090112144	1784.101905354911	372.3366559365165	1066.202042888533	2009.646147727898	620.6459334995857	1128.381596787169	1954.170629793144	642.3546314519106	1088.240053896521	2036.178232431346	726.3873438075119	1146.863605396545	1983.442411455047	746.4064981511161	1108.298810528971	
2814	18.75333333333333	2213.747958101597	965.9140949315706	877.666896484253	2220.959167848464	48.71646326257855	949.056100726136	2239.698090246786	68.21805588662242	900.4922468185709	2221.85294480059	93.23859789404803	943.7034757809389	2136.696252677337	1053.69205710439	828.9789297244325	2425.250752856804	101.8769376671932	956.2306098927851	2387.096504532965	79.40167230125442	852.6909890425976	2057.550088755414	1030.609131955357	928.8924545613352	2273.024052442212	214.1385028965273	867.4178203846287	2226.553541659208	216.3633692269134	898.3533732484376	2261.877944912389	291.1030485857788	846.7410183240142	2215.81888195396	293.6858143441169	875.3405357068897	2228.863051295733	635.6897187897104	813.4980662329531	2170.362315567178	608.9234941117742	847.1191427487013	2178.391855848346	731.8970066561081	802.8434309500213	2123.908233696831	707.6288259186369	837.993775387206	2221.943218849259	953.0354568207842	1078.818661606542	1788.075067122951	108.2110127271501	1041.503750826685	1630.282239311332	208.425374723332	1003.38618839069	1655.393780376059	201.7158728233242	1049.860933865153	1667.673785792274	232.0985529266009	1012.265595669191	2187.768376844328	1028.289599677832	1115.942490907936	1787.21338396508	65.79669136805062	990.6050212768979	1739.170747233616	74.70656693765966	1092.245957345724	2067.805437566493	1028.586920716084	1031.120093383713	1770.482819994738	282.3121531577387	1086.625481097664	1741.019763381132	307.2017033100451	1052.462322452297	1811.735670116487	354.8562545905296	1102.25296657912	1777.86919667848	377.6861362443148	1067.782729940141	2007.266269379719	623.6743524494756	1128.322419033817	1952.069298540423	646.4016157503552	1088.33772748559	2035.573241361137	728.9322871017463	1147.152382912295	1983.109958640357	749.8379614793641	1108.64352708011	
2815	18.76	2214.341699795564	965.243997141886	877.2832047496066	2240.767190306265	43.58219006233926	950.5478348118367	2258.406774035536	63.525935213175	901.7970172629133	2238.977749385011	88.06894638114069	944.7191322513121	2137.564019109484	1053.073030475635	828.6617925684562	2441.795116325424	108.9881357131334	957.2413464440713	2405.076361786875	82.88495257225358	853.8290488884911	2058.412715030933	1030.287124191523	928.5921035732811	2283.875571196875	212.5036218311922	868.1338083125788	2237.496814105164	212.7828511840675	899.3664755980718	2269.254883218665	288.8966405117697	847.4177270076909	2223.266989104006	289.5293385583778	876.3217923766656	2225.819649772441	632.872811539813	813.7085724386277	2167.646529584566	607.1815043290437	848.5985801122632	2176.190820172015	729.5404496754015	802.5886403943568	2122.231489042387	706.291904831799	838.9324190557035	2222.99510212762	953.2437009397611	1078.434046214343	1777.033703087887	112.5097683547575	1042.815754938207	1622.394014107399	217.7848541623462	1005.935276582219	1647.427560875245	210.0327228489067	1052.291335508203	1660.582089250492	240.2684535908124	1014.860684838436	2188.889422563867	1028.691312537214	1115.56966060737	1775.152942291231	70.17269515711182	991.8584772157586	1727.617858897499	79.72957660135478	1093.315578059797	2068.813004414538	1028.882413671783	1030.868159629026	1763.692677645259	287.6572386880719	1088.369656912058	1734.45298042645	312.9611483975833	1054.320923758251	1806.051932575019	359.5806500205263	1103.663676545281	1772.415469299275	382.8427022338227	1069.322164268203	2005.713129460494	625.8635696873257	1128.154431526267	1950.705942061204	649.4742451670113	1088.404630037508	2035.534591512484	730.6814416381552	1147.353619114237	1983.218306705387	752.355551085598	1109.020595173758	
2816	18.76666666666667	2214.906135761808	964.0850984357221	876.9684452406905	2257.999961853704	39.27487330616679	952.0377024747544	2274.578517178859	59.55018251519019	903.0882155515761	2253.829785605809	83.63857074132488	945.7731252561247	2138.527335764731	1051.70789457895	828.3484917905329	2455.710127166305	115.4541173871787	958.0014722157315	2420.253192195181	86.08101039948393	854.7852268867471	2059.187650560104	1029.463556560168	928.2582896196988	2293.116674833348	210.9789761085852	868.8718731608825	2246.890678773059	209.5905456514323	900.3910205612376	2275.512346217921	286.7742626217719	848.1410670902351	2229.674512118445	285.7290092812325	877.3591933360314	2223.08864040983	629.8484891121929	813.8490081321623	2165.33730136387	605.1567616164772	850.0591528206004	2174.159324347515	726.8984129440507	802.2940370944993	2120.825401495494	704.5925788456942	839.8843166799746	2223.925251761014	953.0784794839973	1078.13346213169	1766.221443731442	117.0067696996302	1044.085968710952	1614.705338783459	227.0112660508134	1008.557423711531	1639.687749248921	218.2761283102053	1054.770728086437	1653.620876610634	248.3388637429381	1017.44467953913	2189.618777210627	1028.62606388226	1115.336712817264	1763.271027606764	74.78727322553247	993.1158288648159	1716.379771562075	85.00710069421424	1094.488661956767	2069.687425224279	1028.736803885524	1030.607579107381	1757.396671335203	292.8140531415514	1090.031155483788	1728.455324324272	318.6694882705389	1056.13493234151	1801.120586644308	363.9302610139158	1104.968089297858	1767.791983667695	387.7662607625778	1070.806941531386	2005.004204426087	627.1037826618001	1127.908886269514	1950.089881306682	651.4279373083551	1088.446933812589	2036.025077661714	731.5491428822825	1147.467245481071	1983.725198922815	753.848431515316	1109.418505144013	
2817	18.77333333333333	2215.446537503141	962.493686368976	876.7087078680348	2272.254370689897	35.64200942945396	953.5542144889075	2287.850160976573	56.16223306913128	904.4049970216628	2266.092426278553	79.83751226800469	946.9244425126013	2139.563571224298	1049.673802575272	828.0460224026492	2466.873638557368	120.8027765422096	958.5607115483944	2432.396524181725	88.63090445176454	855.604752861442	2059.876346634821	1028.15871394863	927.9091408437359	2300.601861804526	209.3971052419125	869.6750791245087	2254.553971638844	206.6505589854333	901.4573104167005	2280.556938838063	284.6270709352291	848.9346579790384	2234.909619242655	282.211337528285	878.4587739978447	2220.767274022938	626.7043698234388	813.9640981573485	2163.487518558304	602.9006306923385	851.4598820767134	2172.386131897615	724.0567976346434	802.0213845932032	2119.726371322925	702.5844200358729	840.8372221478431	2224.739610580875	952.5202144522857	1077.900679244532	1755.694826780766	121.6655036283393	1045.3163148841	1607.26655116877	236.1269676986064	1011.24774081499	1632.235373618804	226.4612476286742	1057.292973735878	1646.853197951389	256.3194771223855	1020.007260357124	2190.008307940193	1028.114667540184	1115.218706574665	1751.57483926267	79.60228799800095	994.3652288845399	1705.486248559821	90.52666403283921	1095.774715492286	2070.438944282189	1028.133439463514	1030.350679252928	1751.628615670661	297.7617251249554	1091.613578555002	1723.074209743843	324.2966460634574	1057.896218005387	1796.970934323068	367.8731621763355	1106.169001364695	1764.040394942909	392.4206908034251	1072.226039599906	2005.136126414563	627.3095051444159	1127.618400378338	1950.216886448507	652.1457699239317	1088.465414950123	2036.99037297556	731.4720075743645	1147.499894559355	1984.581756344061	754.2290096169327	1109.819773872934	
